<svg data-name="Layer 1" xmlns="http://www.w3.org/2000/svg" viewBox="0 0 110 23.631"><path d="M109.377 9.236a2.122 2.122 0 01-3.626-1.507 2.125 2.125 0 113.626 1.507zm-2.805-2.8a1.762 1.762 0 00-.535 1.296 1.787 1.787 0 00.531 1.304 1.831 1.831 0 002.595 0 1.848 1.848 0 000-2.6 1.827 1.827 0 00-2.591 0zm1.258.118a1.78 1.78 0 01.637.084.579.579 0 01.363.591.512.512 0 01-.226.46.88.88 0 01-.335.114.553.553 0 01.394.228.636.636 0 01.125.36v.17c0 .054.002.112.006.173a.343.343 0 00.022.122l.014.029h-.384l-.005-.023-.006-.027-.009-.074v-.185a.57.57 0 00-.22-.533.986.986 0 00-.457-.075h-.324v.917h-.412v-2.33zm.449.373a1.09 1.09 0 00-.5-.087h-.354v.842h.374a1.135 1.135 0 00.394-.052.359.359 0 00.242-.363.355.355 0 00-.156-.34zM9.608 23.631c-4.231 0-6.14-1.595-6.833-2.81l-.764 2.567H0V0h3.642v7.78c.763-1.18 2.532-2.394 6.036-2.394 5.863 0 7.493 4.266 7.493 9.122s-1.735 9.123-7.563 9.123zM8.498 8.508c-4.197 0-4.89 2.497-4.89 5.966 0 3.677.867 6.14 4.994 6.14 3.99 0 4.857-2.463 4.857-6.105 0-3.573-.867-6.001-4.96-6.001zM33.482 23.389l-.763-2.567c-.659 1.283-2.532 2.81-6.522 2.81-5.862 0-7.006-3.226-7.006-8.256V5.628h3.642v10.025c0 3.191.59 4.856 4.405 4.856 3.747 0 4.545-1.803 4.545-5.03V5.63h3.746v17.76zM58.15 0h3.678v5.628h4.648v2.983h-4.544v9.678c0 1.665.693 2.43 4.544 2.256v2.983c-5.862.347-8.326-1.041-8.326-5.239zM76.786 23.631c-6.973 0-8.776-4.405-8.776-9.123 0-4.682 1.838-9.122 8.81-9.122 6.904 0 8.812 4.44 8.812 9.122 0 4.753-1.908 9.123-8.846 9.123zm.035-15.228c-4.128 0-5.03 2.775-5.03 6.105 0 3.365.902 6.106 4.995 6.106 4.162 0 5.065-2.67 5.065-6.106 0-3.295-.833-6.105-5.03-6.105zM100.466 23.389v-9.886c0-3.158-.555-5.03-4.337-5.03s-4.578 1.838-4.578 5.03v9.886h-3.712V5.629h2.012l.832 2.496c.59-1.213 2.463-2.74 6.487-2.74 5.828 0 6.973 3.4 6.973 8.43v9.574zM56.319 23.336l-7.102-8.93L56.2 5.628h-4.31l-4.843 6.088-4.913-6.088h-4.309l7.082 8.778-7.082 8.902h4.309l4.943-6.213 4.933 6.241h4.309z" fill="#0062ff"/></svg>